<svg height="512pt" preserveAspectRatio="xMidYMid meet" viewBox="0 0 512 512" width="512pt" xmlns="http://www.w3.org/2000/svg"><g transform="matrix(.003922 0 0 -.003922 0 512)"><path d="m67781 122512c-76-132-280-1043-453-2024-988-5614-4404-14303-6616-16830-245-281-696-950-1002-1487s-1015-1513-1574-2168c-3257-3813-6067-8499-6640-11072-492-2206-573-2371-1021-2094-441 272-160 3327 422 4581 437 941 1260 2227 3102 4845 2720 3867 4001 6628 3843 8287-117 1230-481 1117-830-256-495-1950-5493-7625-8227-9341-395-248-1153-786-1686-1195-1295-996-1394-765-496 1149 1423 3035 1598 4781 674 6729-554 1166-773 940-982-1011-281-2620-1453-5626-3841-9851-1801-3186-1949-5019-778-9620 1047-4112-309-2422-1610 2008-1135 3861-1081 4778 460 7817 1978 3901 2033 5056 125 2593-549-708-1425-1801-1947-2429-3599-4329-4675-7545-4814-14388-116-5671 344-9207 1310-10081 641-580 637-1186-10-1590-946-591-579-2027 510-1992 351 11 638-94 638-234 0-141-345-255-765-255-650 0-778-109-848-718-92-800 593-2045 1043-1895 351 117 1264-1588 1091-2039-166-432-1025-407-1397 41-1322 1593-2806 11905-2241 15571 294 1903-725 6324-1047 4544-290-1606-610-2418-856-2172-299 299-187 1395 410 4008 1167 5111 974 8743-240 4521-573-1992-1779-4337-2784-5414-1948-2087-1960-2179-1037-7547 351-2037 628-4185 617-4772l-22-1068-530 1147c-343 741-572 1870-648 3188-186 3250-786 3820-1283 1218-964-5046-1304-11603-651-12536 468-667 264-1024-363-637-364 224-1576 2134-1923 3030-352 906-376-379-37-1944 225-1035 689-3201 1031-4814 724-3405 1641-6328 2720-8670 2038-4424 2828-5919 3890-7361 633-861 1152-1733 1152-1939 0-1666 7269-8303 12623-11525 6114-3680 9267-5006 14772-6215 4244-932 4746-711 2867 1263-1996 2097-3623 5692-2594 5733 140 6 522-553 849-1241 1519-3201 6177-7178 8076-6896 2414 359 6538 4389 7503 7335 372 1133 1039 1292 1039 248 0-1097-1608-4152-2775-5273-957-918-1343-1670-859-1669 1316 3 7273 1408 10165 2399 2458 841 8901 4239 11167 5889 4485 3263 9539 8460 9705 9977 39 354 483 1065 985 1581 1141 1168 3232 4798 3232 5608 0 333 227 923 504 1312 668 938 1908 4706 2438 7404 234 1192 629 2971 879 3953 932 3668 875 4304-251 2789-632-850-1230-1262-1475-1017-70 70 19 305 199 521 238 288 273 820 128 1982-108 874-227 2565-262 3757-72 2392-739 6645-1168 7447-392 733-638 317-968-1634-160-940-509-2202-776-2805l-487-1095-18 1245c-10 684 381 2875 868 4867 1013 4137 973 4654-482 6265-1067 1181-2028 3005-2930 5562-364 1031-776 1892-916 1912-557 83-410-3646 281-7171 1004-5120 823-13827-328-15688-330-534-604 610-368 1538 487 1910 49 12707-644 15877-417 1907-2083 6088-2994 7512-3209 5013-7100 8534-4731 4280 1877-3369 1900-3433 1865-5162-18-912-221-2105-449-2652-229-547-597-1694-819-2550-442-1707-1629-3964-1623-3085 3 280 123 969 268 1530 1477 5711 1330 7316-1039 11322-1365 2308-2536 5343-3060 7930-495 2447-936 2786-1495 1148-588-1723 164-4803 1758-7204 1009-1520-106-958-3002 1514-4767 4068-7262 6753-8094 8711-943 2220-1411 1932-812-498 534-2163 1603-4069 4446-7928 3139-4261 4017-6557 3137-8201-393-734-785-692-785 83 0 2042-1958 5997-4612 9315-5919 7400-10241 15837-11831 23097-529 2414-760 3091-946 2770zm700-10503c873-5103 5694-13900 8744-15957 587-397 1353-1141 1702-1653 1298-1910 497-1602-1983 764-928 885-1992 1891-2365 2234-1741 1602-4151 6048-5468 10086-464 1421-1052 2725-1329 2946-477 381-491 840-66 2217 196 637 605 297 765-637zm-1533-3825c-658-3629-4082-9933-6245-11500-568-412-1559-1334-2204-2051-644-717-1337-1303-1539-1303-644 0 79 1003 2297 3188 2938 2894 5742 7307 7174 11288 565 1570 759 1712 517 378zm5982-20686c12951-2248 21978-12678 23856-27563 621-4917 350-8557-896-12052-286-803-520-1803-520-2223 0-476-174-855-464-1010-255-137-907-973-1448-1858-7876-12887-23883-17996-37737-12044-10154 4362-16961 16414-16961 30032 0 1872 102 3737 227 4143 126 407 374 1428 553 2270 469 2203 2305 6012 3850 7987 2044 2614 4891 5655 5293 5655 199 0 887 559 1530 1242 2240 2379 8338 4932 13665 5721 1334 198 7329-1 9052-300zm-41527-17071c-93-5445-382-6496-914-3329-167 995 237 7239 515 7965 381 992 476-112 399-4636zm76744-14472c940-3152 809-5176-514-7949-1695-3549-2782-4326-1679-1200 717 2031 863 4449 269 4449-600 0-699 446-281 1255 527 1018 506 1078-308 875-584-145-653-114-409 186 657 814 1562 2719 1731 3646 233 1283 523 976 1191-1262zm-79755 923c84-420 443-1223 798-1786 811-1284 832-1811 71-1730-1457 154-362-5991 1578-8859 1168-1725 1173-1747 311-1301-2243 1160-4576 6757-4242 10177 380 3900 1076 5540 1484 3499zm78918-13564c-322-485-1859-1501-4274-2827-441-242-965-831-1165-1308-318-762-1044-1371-1313-1102-52 52 148 642 445 1312 344 779 485 1483 392 1952-154 766 237 1000 774 463 298-298 2565 521 4166 1505 1132 696 1435 698 975 5zm-75098-1496c1657-1136 1837-1190 2056-619 265 690 729 101 565-718-108-541 6-1025 386-1640 836-1353 396-1275-963 170-678 722-1980 1706-2893 2187-912 481-1813 1122-2001 1423-551 882 1052 430 2850-803zm10170-9871c-270-2755 4512-7467 7578-7467 415 0 837-132 937-294 341-552-3221-2-4734 730-3132 1518-5219 4613-4600 6823 360 1288 939 1436 819 208zm48908-200c0-815-4031-3321-4534-2818-205 205 504 805 2597 2199 1653 1100 1937 1191 1937 619zm3315-808c0-2590-3200-5825-6715-6789-2174-596-2932-217-888 444 3037 981 5589 3413 6447 6143 446 1416 1156 1540 1156 202zm-47860-206c2543-1778 2988-2552 941-1635-1378 617-2705 1603-3067 2277-452 846 339 607 2126-642z"/><path d="m67083 83703c-1931-984-2504-3098-1566-5777 877-2502 736-3800-636-5844-2754-4105-6595-6219-10014-5509-768 159-1830 220-2361 135-1562-250-5593 785-7669 1968l-976 557-634-765c-1755-2120-643-5541 1282-3943 976 810 4751 217 7521-1183 485-245 1227-615 1648-821 2155-1059 2679-2411 3294-8495 166-1639-200-2247-1074-1780-393 211-542 727-758 2637-531 4674-1934 6833-5016 7723-1683 485-5116 622-5116 203 0-167 860-1077 1912-2023 2123-1909 2309-2236 3239-5706 587-2190 641-2790 562-6247-224-9856-279-9512 1854-11586 1738-1691 2060-1755 1695-337-479 1862-779 3515-751 4145 16 351 35 1154 43 1785 44 3681 2739 8670 4682 8670 250 0 1074 180 1831 400 1626 473 5471 384 7206-167l1109-352 763 888c420 489 1374 1586 2120 2440 1510 1725 1501 1895-135 2637-1538 698-2798 706-2798 19 0-682-303-643-972 127-580 667-1293 821-1737 377-179-179-539-144-1135 109l-873 372 892 381c491 210 1404 906 2029 1548 626 641 1371 1166 1658 1167 286 0 896 230 1355 510 887 540 1333 641 1333 301 0-114-426-411-947-659-1216-580-2917-1924-2759-2180 67-108 641-268 1275-355s1699-433 2366-769 1614-697 2105-803c2176-466 2180-474 1028-1931-565-715-1029-1377-1030-1469-2-93-805-1016-1785-2052-981-1036-1783-1992-1783-2124s-697-938-1548-1789c-3562-3562-6077-8676-6094-12392-13-3061 2255-4804 2543-1954 206 2025 2949 4715 4809 4715 265 0 625 172 800 383 175 210 533 382 796 382 607 0 600 171-60 1663-1384 3128 3621 7961 9774 9438 881 211 2017 497 2525 634 2188 593 6468-303 8131-1703 916-770 1541-697 1986 233 765 1595-1568 3895-5341 5267-2025 737-2477 2632-2348 9841 79 4424 21 5437-442 7650-293 1402-613 3207-710 4011-219 1813-3407 5004-5042 5047-119 3-503 230-854 504-1669 1305-1818 680-419-1760 3897-6800 3989-15032 178-16090-2765-768-6525 583-7533 2707-448 943-445 1031 110 3533 683 3075 829 7882 310 10208-187 841-387 1775-443 2074-202 1069-2237 1772-3405 1176z"/><path d="m60308 83456c-702-212-1778-722-2393-1135-615-412-1262-694-1437-627-337 129-2608-1256-3693-2252-351-321-886-713-1191-869-304-156-626-617-715-1025-103-467-368-795-718-886-429-112-486-214-251-449 212-212 403-224 633-40 417 333 1392 259 1787-136 1537-1537 9884 1616 9892 3736 0 234 185 769 410 1190 1442 2700 764 3427-2324 2493z"/><path d="m72506 81409c474-5109 482-7585 29-9754-771-3692-715-4051 775-5030 7164-4704 7699 8643 618 15447-1482 1425-1610 1365-1422-663z"/><path d="m61828 76991c-2441-2524-9819-4057-13488-2803-1746 596-3012-1506-2197-3648 385-1013 1467-1404 6132-2212 4635-804 9619 1436 11503 5168 883 1748 898 2070 159 3367-761 1336-930 1346-2109 128z"/><path d="m86723 74360c-290-349-292-944-14-3664 183-1787 310-5397 283-8023l-50-4774 967-610c531-335 1122-797 1312-1027 191-229 583-417 873-417 289 0 783-242 1097-537 709-666 936-534 1376 799 298 902 295 1084-18 1280-294 182-306 325-61 720 1033 1668-1007 10226-2867 12029-493 478-881 1108-881 1430 0 317-258 969-574 1449-315 479-691 1072-835 1317-242 410-289 412-608 28z"/><path d="m42446 61436c-329-533 163-6446 592-7120 224-350 433-1163 465-1807 73-1438 1275-4604 2357-6207 443-656 805-1341 805-1523 0-440 832-1174 1331-1174 1034 0 1508 7548 657 10455-1080 3687-5351 8762-6207 7376z"/><path d="m60663 50140c-5176-1114-7072-10087-3293-15581 1267-1841 2798-2372 2409-835-483 1913 311 5671 1770 8373 1552 2875 2469 4336 3565 5682 652 801 1186 1626 1186 1835 0 866-2828 1130-5637 526z"/><path d="m83003 48964c-4793-417-10838-4251-10838-6874 0-1056 1345-2565 2287-2565 388 0 1539-417 2558-927l1854-928 794 922c965 1119 3394 2599 4656 2836 3146 590 7150 3496 6932 5032-229 1612-4295 2847-8243 2504z"/><path d="m71018 37396c-3693-1634-5834-3979-4582-5018 1051-872 7909 30 11148 1466 2083 924 1875 1537-1043 3085-1993 1056-3839 1212-5523 467z"/></g></svg>